<svg xmlns="http://www.w3.org/2000/svg" viewBox="0 0 128 128" role="img" aria-label="Cactus Mature">
  <defs>
    <linearGradient id="cactusMature" x1="0%" y1="0%" x2="100%" y2="0%">
      <stop offset="0%" stop-color="#14532d"/>
      <stop offset="20%" stop-color="#22c55e"/>
      <stop offset="80%" stop-color="#22c55e"/>
      <stop offset="100%" stop-color="#14532d"/>
    </linearGradient>
    <linearGradient id="cactusArm" x1="0%" y1="0%" x2="100%" y2="0%">
      <stop offset="0%" stop-color="#166534"/>
      <stop offset="50%" stop-color="#22c55e"/>
      <stop offset="100%" stop-color="#166534"/>
    </linearGradient>
  </defs>
  <!-- Ground shadow -->
  <ellipse cx="64" cy="120" rx="35" ry="6" fill="#0a0a0a" opacity="0.4"/>
  <!-- Sandy ground -->
  <ellipse cx="64" cy="116" rx="40" ry="7" fill="#d4a574"/>
  <ellipse cx="64" cy="114" rx="36" ry="5" fill="#e5c9a8"/>
  <!-- Rocks -->
  <ellipse cx="35" cy="116" rx="5" ry="3" fill="#a8a29e"/>
  <ellipse cx="92" cy="115" rx="4" ry="2.5" fill="#a8a29e"/>
  <circle cx="50" cy="117" r="2" fill="#78716c"/>
  <!-- Main body -->
  <path d="M50 114 Q44 85 48 45 Q64 32 80 45 Q84 85 78 114 Z" fill="url(#cactusMature)"/>
  <!-- Main body ridges -->
  <path d="M52 112 Q46 80 50 48" fill="none" stroke="#15803d" stroke-width="2.5" opacity="0.6"/>
  <path d="M60 114 Q58 80 60 42" fill="none" stroke="#15803d" stroke-width="2" opacity="0.5"/>
  <path d="M68 114 Q70 80 68 42" fill="none" stroke="#15803d" stroke-width="2" opacity="0.5"/>
  <path d="M76 112 Q82 80 78 48" fill="none" stroke="#15803d" stroke-width="2.5" opacity="0.6"/>
  <!-- Left arm (lower) -->
  <path d="M48 85 Q30 85 25 85 Q20 75 25 55 Q30 48 35 55" fill="url(#cactusArm)"/>
  <path d="M30 80 Q25 70 30 58" fill="none" stroke="#15803d" stroke-width="1.5" opacity="0.6"/>
  <!-- Left arm (upper) -->
  <path d="M35 55 Q35 42 42 32" fill="url(#cactusArm)"/>
  <!-- Right arm (lower) -->
  <path d="M80 78 Q98 78 103 78 Q108 68 103 50 Q98 42 93 50" fill="url(#cactusArm)"/>
  <path d="M98 74 Q103 62 98 52" fill="none" stroke="#15803d" stroke-width="1.5" opacity="0.6"/>
  <!-- Right arm (upper) -->
  <path d="M93 50 Q93 38 86 28" fill="url(#cactusArm)"/>
  <!-- Main spines -->
  <line x1="44" y1="60" x2="36" y2="56" stroke="#fef3c7" stroke-width="2" stroke-linecap="round"/>
  <line x1="44" y1="78" x2="36" y2="78" stroke="#fef3c7" stroke-width="2" stroke-linecap="round"/>
  <line x1="44" y1="95" x2="38" y2="98" stroke="#fef3c7" stroke-width="2" stroke-linecap="round"/>
  <line x1="84" y1="55" x2="92" y2="52" stroke="#fef3c7" stroke-width="2" stroke-linecap="round"/>
  <line x1="84" y1="72" x2="92" y2="72" stroke="#fef3c7" stroke-width="2" stroke-linecap="round"/>
  <line x1="84" y1="92" x2="90" y2="95" stroke="#fef3c7" stroke-width="2" stroke-linecap="round"/>
  <line x1="64" y1="36" x2="64" y2="26" stroke="#fef3c7" stroke-width="2" stroke-linecap="round"/>
  <!-- Arm spines -->
  <line x1="22" y1="72" x2="16" y2="70" stroke="#fef3c7" stroke-width="1.5" stroke-linecap="round"/>
  <line x1="22" y1="60" x2="16" y2="58" stroke="#fef3c7" stroke-width="1.5" stroke-linecap="round"/>
  <line x1="38" y1="35" x2="34" y2="28" stroke="#fef3c7" stroke-width="1.5" stroke-linecap="round"/>
  <line x1="106" y1="65" x2="112" y2="63" stroke="#fef3c7" stroke-width="1.5" stroke-linecap="round"/>
  <line x1="106" y1="55" x2="112" y2="52" stroke="#fef3c7" stroke-width="1.5" stroke-linecap="round"/>
  <line x1="90" y1="32" x2="94" y2="25" stroke="#fef3c7" stroke-width="1.5" stroke-linecap="round"/>
  <!-- Flower on top -->
  <circle cx="64" cy="30" r="6" fill="#ec4899"/>
  <circle cx="64" cy="30" r="3.5" fill="#f472b6"/>
  <circle cx="64" cy="30" r="1.5" fill="#fef9c3"/>
  <!-- Highlight -->
  <ellipse cx="58" cy="70" rx="5" ry="20" fill="#4ade80" opacity="0.25"/>
</svg>