<svg xmlns="http://www.w3.org/2000/svg" viewBox="0 0 600 400">
  <defs>
    <radialGradient id="glow" cx="0.5" cy="0.25" r="0.6">
      <stop offset="0%" stop-color="#ffb76b" stop-opacity="0.8"/>
      <stop offset="60%" stop-color="#9f6bff" stop-opacity="0.4"/>
      <stop offset="100%" stop-color="#1b0f3f" stop-opacity="0"/>
    </radialGradient>
  </defs>
  <rect width="600" height="400" fill="#090712"/>
  <circle cx="300" cy="90" r="190" fill="url(#glow)"/>
  <g stroke="#ffbd6a" stroke-opacity="0.6" stroke-width="1.5">
    <line x1="300" y1="80" x2="252" y2="112"/>
    <line x1="300" y1="80" x2="348" y2="112"/>
    <line x1="252" y1="112" x2="180" y2="160"/>
    <line x1="348" y1="112" x2="420" y2="160"/>
    <line x1="180" y1="160" x2="132" y2="210"/>
    <line x1="420" y1="160" x2="468" y2="210"/>
    <line x1="132" y1="210" x2="210" y2="240"/>
    <line x1="468" y1="210" x2="390" y2="240"/>
    <line x1="210" y1="240" x2="300" y2="280"/>
    <line x1="390" y1="240" x2="300" y2="280"/>
    <line x1="300" y1="280" x2="240" y2="320"/>
    <line x1="300" y1="280" x2="360" y2="320"/>
  </g>
  <g fill="#ffd7a6">
    <circle cx="300" cy="80" r="3"/>
    <circle cx="252" cy="112" r="2.5"/>
    <circle cx="348" cy="112" r="2.5"/>
    <circle cx="180" cy="160" r="2.2"/>
    <circle cx="420" cy="160" r="2.2"/>
    <circle cx="132" cy="210" r="2"/>
    <circle cx="468" cy="210" r="2"/>
    <circle cx="210" cy="240" r="2.2"/>
    <circle cx="390" cy="240" r="2.2"/>
    <circle cx="300" cy="280" r="2.6"/>
    <circle cx="240" cy="320" r="2"/>
    <circle cx="360" cy="320" r="2"/>
  </g>
</svg>
