<svg viewBox="0 0 200 200" xmlns="http://www.w3.org/2000/svg">
    <g>
        <path fill="#F59E0B" d="M100 20c-20 0-40 10-50 30-10 20-10 50 0 70 10 20 30 30 50 30s40-10 50-30c10-20 10-50 0-70-10-20-30-30-50-30zm0 10c15 0 30 8 40 25 8 17 8 43 0 60-10 15-25 25-40 25s-30-10-40-25c-8-17-8-43 0-60 10-17 25-25 40-25z M100 60 a 5 5 0 0 1 0 10 a 5 5 0 0 1 0 -10 M70 80 a 5 5 0 0 1 0 10 a 5 5 0 0 1 0 -10 M130 80 a 5 5 0 0 1 0 10 a 5 5 0 0 1 0 -10 M100 100 q -20 20 0 40 q 20 -20 0 -40"></path>
    </g>
</svg>
