<svg xmlns="http://www.w3.org/2000/svg" width="900" height="520" viewBox="0 0 900 520">
  <defs>
    <linearGradient id="sky" x1="0" x2="1" y1="0" y2="1">
      <stop offset="0%" stop-color="#ffe3f6"/>
      <stop offset="55%" stop-color="#b9ddff"/>
      <stop offset="100%" stop-color="#6276c8"/>
    </linearGradient>
    <linearGradient id="city" x1="0" x2="0" y1="0" y2="1">
      <stop offset="0%" stop-color="#4b4ea3"/>
      <stop offset="100%" stop-color="#1d1f4f"/>
    </linearGradient>
  </defs>
  <rect width="900" height="520" fill="url(#sky)"/>
  <circle cx="120" cy="110" r="40" fill="#ffffff" opacity="0.7"/>
  <circle cx="180" cy="110" r="28" fill="#ffffff" opacity="0.7"/>
  <circle cx="150" cy="80" r="32" fill="#ffffff" opacity="0.7"/>
  <circle cx="740" cy="130" r="34" fill="#ffffff" opacity="0.7"/>
  <circle cx="780" cy="130" r="26" fill="#ffffff" opacity="0.7"/>
  <circle cx="760" cy="110" r="30" fill="#ffffff" opacity="0.7"/>

  <path d="M60 520 L60 360 L120 360 L120 300 L170 300 L170 380 L240 380 L240 320 L300 320 L300 520 Z" fill="url(#city)"/>
  <path d="M320 520 L320 340 L380 340 L380 280 L430 280 L430 360 L500 360 L500 310 L560 310 L560 520 Z" fill="url(#city)"/>
  <path d="M580 520 L580 350 L650 350 L650 290 L710 290 L710 370 L780 370 L780 330 L840 330 L840 520 Z" fill="url(#city)"/>

  <g fill="#ffd5f0" opacity="0.8">
    <path d="M520 130 l12 0 l0 12 l12 0 l0 12 l-12 0 l0 12 l-12 0 l0 -12 l-12 0 l0 -12 l12 0 z"/>
    <path d="M410 90 l10 0 l0 10 l10 0 l0 10 l-10 0 l0 10 l-10 0 l0 -10 l-10 0 l0 -10 l10 0 z"/>
  </g>

  <g fill="#ff8fd8">
    <path d="M670 210 l12 12 l-12 12 l-12 -12 z"/>
    <circle cx="682" cy="198" r="10"/>
    <circle cx="658" cy="198" r="10"/>
  </g>
  <g fill="#9ce1ff">
    <path d="M240 170 l12 12 l-12 12 l-12 -12 z"/>
    <circle cx="252" cy="158" r="9"/>
    <circle cx="228" cy="158" r="9"/>
  </g>
</svg>
