<svg xmlns="http://www.w3.org/2000/svg" viewBox="0 0 320 320" role="img" aria-label="Phoenix Guard Potion">
  <defs>
    <linearGradient id="glow" x1="0" x2="1" y1="0" y2="1">
      <stop offset="0%" stop-color="#fef08a"/>
      <stop offset="50%" stop-color="#f97316"/>
      <stop offset="100%" stop-color="#ef4444"/>
    </linearGradient>
    <linearGradient id="glass" x1="0" x2="0" y1="0" y2="1">
      <stop offset="0%" stop-color="#e0f2fe" stop-opacity="0.7"/>
      <stop offset="100%" stop-color="#0f172a" stop-opacity="0.3"/>
    </linearGradient>
  </defs>
  <rect width="320" height="320" rx="48" fill="#0b1120"/>
  <circle cx="160" cy="160" r="110" fill="url(#glow)" opacity="0.15"/>
  <path d="M120 80h80v24c0 10-8 18-18 18h-44c-10 0-18-8-18-18V80z" fill="#1f2937"/>
  <rect x="135" y="48" width="50" height="40" rx="8" fill="#374151"/>
  <path d="M92 120h136l-16 132c-2 16-16 28-32 28h-72c-16 0-30-12-32-28L92 120z" fill="url(#glass)" stroke="#f8fafc" stroke-opacity="0.2" stroke-width="2"/>
  <path d="M110 190c22 18 48 26 78 16 18-6 28-18 34-34" fill="none" stroke="#f59e0b" stroke-width="10" stroke-linecap="round" stroke-linejoin="round"/>
  <path d="M140 220c10 8 22 12 36 8 8-2 14-8 18-16" fill="none" stroke="#f97316" stroke-width="8" stroke-linecap="round" stroke-linejoin="round"/>
  <circle cx="160" cy="188" r="8" fill="#fde047"/>
</svg>
